<!DOCTYPE svg PUBLIC "-//W3C//DTD SVG 1.1//EN" "http://www.w3.org/Graphics/SVG/1.1/DTD/svg11.dtd">
<!-- Uploaded to: SVG Repo, www.svgrepo.com, Transformed by: SVG Repo Mixer Tools -->
<svg width="800px" height="800px" viewBox="-6.4 -6.4 76.80 76.80" xmlns="http://www.w3.org/2000/svg" stroke-width="3" stroke="#f6d013" fill="none">
<g id="SVGRepo_bgCarrier" stroke-width="0">
<rect x="-6.4" y="-6.4" width="76.80" height="76.80" rx="38.4" fill="#0d0d0d" strokewidth="0"/>
</g>
<g id="SVGRepo_tracerCarrier" stroke-linecap="round" stroke-linejoin="round"/>
<g id="SVGRepo_iconCarrier">
<path d="M30,52.16c.81-2.07,7.06-17,19.76-19.86a.09.09,0,0,0,0-.18c-2.14-.86-15.22-6.57-19.38-20.26a.09.09,0,0,0-.18,0c-.51,2.27-3.94,14.43-20,20a.1.1,0,0,0,0,.19c2.24.38,13.48,3.14,19.62,20.15A.1.1,0,0,0,30,52.16Z"/>
<path d="M48.79,25.08c.29-.74,2.52-6.07,7.06-7.09a0,0,0,0,0,0-.07c-.76-.3-5.43-2.34-6.92-7.23a0,0,0,0,0-.07,0c-.18.82-1.4,5.16-7.14,7.13a0,0,0,0,0,0,.07c.8.14,4.81,1.12,7,7.2A0,0,0,0,0,48.79,25.08Z"/>
</g>
</svg>